<?xml version="1.0" encoding="UTF-8" standalone="no"?>
<svg
   xmlns:dc="http://purl.org/dc/elements/1.1/"
   xmlns:cc="http://creativecommons.org/ns#"
   xmlns:rdf="http://www.w3.org/1999/02/22-rdf-syntax-ns#"
   xmlns:svg="http://www.w3.org/2000/svg"
   xmlns="http://www.w3.org/2000/svg"
   xmlns:sodipodi="http://sodipodi.sourceforge.net/DTD/sodipodi-0.dtd"
   xmlns:inkscape="http://www.inkscape.org/namespaces/inkscape"
   width="16"
   height="16"
   viewBox="0 0 4.2333332 4.2333335"
   version="1.1"
   id="svg8"
   inkscape:version="1.0.2 (1.0.2+r75+1)"
   sodipodi:docname="maximize.svg">
  <title
     id="title22">Lainan Desktop Maximize Button</title>
  <defs
     id="defs2" />
  <sodipodi:namedview
     id="base"
     pagecolor="#ffffff"
     bordercolor="#666666"
     borderopacity="1.0"
     inkscape:pageopacity="0.0"
     inkscape:pageshadow="2"
     inkscape:zoom="34.51565"
     inkscape:cx="8"
     inkscape:cy="8"
     inkscape:document-units="px"
     inkscape:current-layer="layer1"
     inkscape:document-rotation="0"
     showgrid="true"
     units="px"
     inkscape:window-width="1920"
     inkscape:window-height="993"
     inkscape:window-x="0"
     inkscape:window-y="0"
     inkscape:window-maximized="1">
    <sodipodi:guide
       position="0,4.2333333"
       orientation="0,16"
       id="guide10" />
    <sodipodi:guide
       position="4.2333333,4.2333333"
       orientation="16,0"
       id="guide12" />
    <sodipodi:guide
       position="0,0"
       orientation="-16,0"
       id="guide16" />
    <inkscape:grid
       type="xygrid"
       id="grid18"
       spacingx="0.21166667"
       spacingy="0.21166667" />
  </sodipodi:namedview>
  <metadata
     id="metadata5">
    <rdf:RDF>
      <cc:Work
         rdf:about="">
        <dc:format>image/svg+xml</dc:format>
        <dc:type
           rdf:resource="http://purl.org/dc/dcmitype/StillImage" />
        <dc:title>Lainan Desktop Full Screen Button</dc:title>
        <dc:rights>
          <cc:Agent>
            <dc:title>(c) 2021 Renorari</dc:title>
          </cc:Agent>
        </dc:rights>
        <dc:creator>
          <cc:Agent>
            <dc:title>Renorari</dc:title>
          </cc:Agent>
        </dc:creator>
      </cc:Work>
    </rdf:RDF>
  </metadata>
  <g
     inkscape:label="レイヤー 1"
     inkscape:groupmode="layer"
     id="layer1">
    <circle
       style="fill:#55ddff;stroke-width:0.264583"
       id="path26"
       cx="2.1166666"
       cy="2.1166666"
       r="2.1166666" />
    <path
       style="fill:#0088aa;stroke-width:0.00766561"
       d="M 1.7246675,3.0774714 C 1.4358198,3.0047946 1.274603,2.9608288 1.2704784,2.9536086 1.2632355,2.9409298 1.0400387,2.0483351 1.0434263,2.045596 c 0.00622,-0.00503 0.2434826,-0.060207 0.2460509,-0.057221 0.00166,0.00193 0.045579,0.1744574 0.097602,0.3833986 l 0.094587,0.3798931 0.379893,0.094587 c 0.2089412,0.052023 0.3814397,0.095913 0.38333,0.097534 0.00662,0.00568 -0.056505,0.2477529 -0.064425,0.2470568 -0.0044,-3.969e-4 -0.2095097,-0.051405 -0.4557972,-0.1133731 z"
       id="path90" />
    <path
       style="fill:#0088aa;stroke-width:0.00766561"
       d="M 2.8469016,1.8634683 2.7516667,1.4816667 2.3717422,1.3870718 C 2.1627838,1.3350446 1.9902403,1.29112 1.9883123,1.2894615 c -0.00298,-0.00256 0.052186,-0.239819 0.057211,-0.2460402 0.00395,-0.00489 0.9051514,0.2233732 0.9130444,0.2312662 0.00787,0.00787 0.2361917,0.9091889 0.2312663,0.912947 -0.00443,0.00338 -0.2283098,0.057635 -0.2378303,0.057635 -0.00664,0 -0.041025,-0.1249159 -0.1051021,-0.3818012 z"
       id="path92" />
  </g>
</svg>
